HIERARCHY
ROOT Hips
{
	OFFSET -40.005398 108.132500 5.364305
	CHANNELS 6 Xposition Yposition Zposition Xrotation Yrotation Zrotation
	JOINT Chest
	{
		OFFSET 0.640644 13.450890 -2.194870
		CHANNELS 3 Xrotation Yrotation Zrotation
		JOINT Chest2
		{
			OFFSET -3.798546 20.375809 5.428079
			CHANNELS 3 Xrotation Yrotation Zrotation
			JOINT Chest3
			{
				OFFSET -0.940514 14.823898 1.479015
				CHANNELS 3 Xrotation Yrotation Zrotation
				JOINT Neck
				{
					OFFSET -2.291313 16.986481 2.196725
					CHANNELS 3 Xrotation Yrotation Zrotation
					JOINT Head
					{
						OFFSET -4.026264 9.332092 2.555194
						CHANNELS 3 Xrotation Yrotation Zrotation
						End Site
						{
							OFFSET -3.999729 9.360229 2.493200
						}
					}
				}
				JOINT LeftCollar
				{
					OFFSET 2.052128 13.107910 5.077004
					CHANNELS 3 Xrotation Yrotation Zrotation
					JOINT LeftUpArm
					{
						OFFSET 15.250038 7.531708 -4.382801
						CHANNELS 3 Xrotation Yrotation Zrotation
						JOINT LeftLowArm
						{
							OFFSET 26.584137 18.339478 9.832326
							CHANNELS 3 Xrotation Yrotation Zrotation
							JOINT LeftHand
							{
								OFFSET -10.599561 22.618546 16.643246
								CHANNELS 3 Xrotation Yrotation Zrotation
								End Site
								{
									OFFSET -2.316600 4.943420 3.637470
								}
							}
						}
					}
				}
				JOINT RightCollar
				{
					OFFSET -6.233475 12.134430 3.963337
					CHANNELS 3 Xrotation Yrotation Zrotation
					JOINT RightUpArm
					{
						OFFSET -15.772430 -2.760132 -7.218623
						CHANNELS 3 Xrotation Yrotation Zrotation
						JOINT RightLowArm
						{
							OFFSET -30.162483 -10.822769 10.621971
							CHANNELS 3 Xrotation Yrotation Zrotation
							JOINT RightHand
							{
								OFFSET -18.006989 7.050278 22.956406
								CHANNELS 3 Xrotation Yrotation Zrotation
								End Site
								{
									OFFSET -3.935608 1.540863 5.017361
								}
							}
						}
					}
				}
			}
		}
	}
	JOINT LeftUpLeg
	{
		OFFSET 8.726339 0.385590 4.911360
		CHANNELS 3 Xrotation Yrotation Zrotation
		JOINT LeftLowLeg
		{
			OFFSET -21.392580 -2.505150 42.190891
			CHANNELS 3 Xrotation Yrotation Zrotation
			JOINT LeftFoot
			{
				OFFSET -14.881996 -42.143711 1.732643
				CHANNELS 3 Xrotation Yrotation Zrotation
				JOINT LeftToe
				{
					OFFSET -10.337883 -2.664154 21.109005
					CHANNELS 3 Xrotation Yrotation Zrotation
					End Site
					{
						OFFSET -5.059204 12.302036 19.560753
					}
				}
			}
		}
	}
	JOINT RightUpLeg
	{
		OFFSET -8.726353 -0.385780 -4.911330
		CHANNELS 3 Xrotation Yrotation Zrotation
		JOINT RightLowLeg
		{
			OFFSET -10.448944 -45.756992 6.413150
			CHANNELS 3 Xrotation Yrotation Zrotation
			JOINT RightFoot
			{
				OFFSET 8.124676 -40.753120 -16.545460
				CHANNELS 3 Xrotation Yrotation Zrotation
				JOINT RightToe
				{
					OFFSET -12.860359 -16.190716 11.490366
					CHANNELS 3 Xrotation Yrotation Zrotation
					End Site
					{
						OFFSET -16.988148 -1.587267 16.384123
					}
				}
			}
		}
	}
}
MOTION
Frames: 14
Frame Time: 0.033333
82.075180 94.701553 26.296455 55.015678 43.728145 -49.719221 -10.869824 -0.268257 -2.828417 4.658852 2.877384 -1.978588 -6.027531 8.377168 5.551584 -12.928786 -8.163878 0.196049 0.000002 0.000003 0.000003 5.526560 -4.271925 -19.446430 8.880271 -21.804327 -39.808883 51.172201 -15.363718 -14.818975 -0.000004 -0.000003 -0.000002 6.417846 17.463790 -14.018196 -9.420906 26.361168 -7.864842 9.416805 -18.717064 14.073893 0.000001 -0.000002 0.000001 -0.264154 25.367292 23.793538 -14.344449 15.293987 7.005563 -4.732437 -29.266643 -2.704939 0.000006 0.000003 -0.000002 13.318381 -6.291232 -8.664741 -8.937173 -0.978033 3.457916 19.795558 1.368402 23.547246 0.000002 -0.000004 -0.000003 
81.889130 94.499939 26.482891 50.623235 44.300050 -46.716144 -11.245428 -0.005295 -4.659255 6.489885 3.391330 -1.567630 -5.993225 2.542197 3.093844 -9.542195 -4.630597 -0.378118 -0.000000 0.000002 -0.000003 8.155724 -7.410968 -21.545065 9.936994 -24.582819 -47.364876 60.363996 -17.643191 -23.660825 -0.000001 -0.000001 -0.000000 8.166241 18.673679 -18.535001 -7.602041 26.723633 -11.993817 8.968443 -22.562377 12.525162 -0.000002 -0.000004 0.000002 0.675863 27.342050 26.274114 -13.357187 13.774181 5.962594 -3.554114 -27.972162 -1.721297 -0.000003 -0.000002 0.000004 12.296660 -5.852915 -8.770058 -7.518465 -1.115187 4.960068 17.491834 2.037718 21.457558 0.000004 -0.000008 -0.000001 
81.494537 94.356895 26.735786 45.272847 44.535842 -42.061309 -14.064539 0.627009 -7.938761 8.554251 3.724514 -0.745804 -5.557283 -4.110274 -0.243384 -6.768890 0.973983 -2.264897 -0.000001 0.000003 -0.000000 10.439358 -8.770992 -24.396242 11.400344 -21.464477 -54.322151 63.201509 -16.949041 -37.255875 -0.000002 0.000001 -0.000001 10.152467 18.310030 -24.096158 -4.654124 26.575344 -18.287476 9.986530 -26.312998 10.021195 0.000001 -0.000004 0.000001 2.466217 29.562503 28.887110 -12.405737 12.898720 4.123988 -2.647159 -25.596993 -0.673658 -0.000001 -0.000001 -0.000001 12.014451 -5.736766 -9.307393 -4.618760 -1.620073 6.897195 14.254068 2.572990 18.028552 -0.000001 -0.000004 -0.000005 
81.046173 94.338898 26.929626 37.877388 43.568445 -36.113468 -15.977986 1.215276 -9.670923 8.247544 3.836746 -0.828567 -3.204003 -11.995326 -3.136706 -2.828442 6.121332 -4.750963 -0.000001 0.000003 0.000002 10.556360 -9.950968 -26.077138 11.219431 -20.306721 -62.414624 56.772980 -11.698738 -51.152561 -0.000007 -0.000003 0.000001 9.926233 15.677984 -30.930375 -4.044342 25.607767 -24.176708 14.116096 -28.456385 15.413560 0.000001 -0.000001 -0.000001 4.927749 32.418424 31.992872 -11.921048 13.286547 3.587156 -1.462430 -23.766912 0.373146 0.000003 0.000003 -0.000003 12.292617 -5.376680 -8.645996 -1.305279 -1.487576 4.824329 9.374611 7.430994 17.192027 -0.000001 -0.000002 0.000000 
80.449783 94.289146 27.168552 31.487295 42.713940 -30.546641 -15.870884 1.672384 -11.594043 6.957323 3.182307 -0.578134 -0.041431 -18.736194 -4.703256 0.189637 9.787326 -6.544120 -0.000001 -0.000002 -0.000003 10.399876 -9.950848 -28.094979 11.488385 -20.061809 -67.006150 50.615585 -5.048806 -59.980460 -0.000001 -0.000002 -0.000000 8.616602 10.805753 -37.354632 -2.417566 17.972002 -32.565335 5.679740 -29.542313 5.111921 -0.000002 -0.000002 -0.000000 7.152040 35.264246 35.262518 -10.998180 10.714244 1.128230 -2.484061 -20.847377 -0.510802 -0.000004 -0.000003 0.000002 12.501776 -5.631126 -10.644172 -0.196223 -0.874753 3.861725 8.018192 10.360104 19.205995 -0.000002 -0.000002 -0.000002 
79.498383 94.311813 27.515667 25.805986 40.483194 -23.654825 -14.350019 1.225742 -10.012003 5.570020 3.119013 -1.090237 2.474943 -24.219308 -5.743466 1.745686 14.519901 -9.553147 -0.000000 -0.000000 -0.000002 11.037589 -10.610488 -30.495705 12.133848 -16.813977 -66.309806 46.490331 -1.511647 -56.801475 -0.000003 -0.000004 0.000000 6.120990 5.589426 -39.898318 -1.752745 11.199024 -36.470741 4.529136 -31.346439 4.209755 0.000003 0.000002 0.000002 10.149425 36.636759 36.587957 -10.571516 8.184792 -0.981511 -1.638127 -17.044237 -0.239550 -0.000003 -0.000003 0.000003 11.318858 -5.783592 -13.905962 2.390174 0.299459 4.199689 6.498739 11.234164 19.405220 0.000000 -0.000006 -0.000002 
78.329712 94.453453 27.875992 21.179966 36.976882 -18.357844 -13.653502 0.794219 -8.279565 3.465218 2.211526 -0.844598 4.732407 -26.343734 -6.656048 3.179921 18.809306 -12.526663 0.000001 0.000002 -0.000003 12.190610 -12.376428 -26.210808 12.850415 -25.895049 -58.914541 35.828775 7.781705 -54.396535 -0.000003 -0.000003 -0.000002 4.739803 2.305386 -37.923560 -0.482881 6.687452 -36.130140 4.743285 -33.642332 3.625669 -0.000004 -0.000001 0.000000 13.587026 39.972415 39.462121 -12.902268 7.166729 -6.019408 1.569775 -13.817529 1.804721 -0.000002 -0.000001 0.000003 8.300229 -5.059657 -16.041225 5.447399 1.020141 3.436733 5.914922 11.816005 19.524297 0.000001 -0.000006 0.000000 
77.125290 94.687325 28.209095 17.961637 34.258600 -14.494638 -13.488270 0.617398 -7.472865 2.921677 1.935609 -0.723520 5.487037 -26.637910 -7.099219 4.732455 21.898199 -14.396275 -0.000002 0.000001 0.000003 12.629223 -13.085450 -22.584939 14.262737 -31.736652 -50.370610 26.835605 14.582469 -52.689319 -0.000002 -0.000001 -0.000002 3.915872 0.672615 -35.828140 0.422003 3.459892 -33.144951 7.572198 -31.464988 7.628891 -0.000001 -0.000004 0.000001 17.406119 41.972530 40.492012 -16.523131 7.380744 -9.350747 4.716669 -11.808455 3.466185 -0.000001 -0.000004 -0.000000 6.733411 -4.339090 -16.721071 7.049539 2.376957 2.579703 6.653928 11.134862 20.137368 0.000000 -0.000006 0.000001 
75.649765 95.155479 28.514942 13.299212 30.929938 -11.110997 -13.115324 0.520133 -6.176983 2.494144 2.386067 -1.696298 5.264569 -24.852115 -7.055308 9.291858 24.673973 -16.685315 0.000002 0.000001 0.000001 11.082338 -12.293809 -17.488424 13.159034 -32.865170 -41.340328 20.681326 18.200200 -55.745938 -0.000002 0.000000 0.000003 2.549903 0.936416 -33.225247 -1.541572 2.457773 -24.137619 13.614005 -26.095054 18.248498 -0.000002 -0.000004 0.000000 23.430445 43.418843 39.803641 -21.327428 12.012951 -6.646467 8.212187 -21.645018 6.352184 -0.000000 -0.000001 0.000003 6.986299 -4.081986 -13.744788 7.986767 3.310905 -1.758391 2.775792 14.103224 20.583861 0.000002 -0.000003 0.000002 
73.891220 95.824966 28.789471 9.931149 28.689523 -8.071910 -13.023743 0.636411 -5.867628 1.222710 2.274166 -2.359653 6.671547 -23.735355 -6.397323 13.663686 26.940230 -19.126987 0.000001 0.000003 0.000006 8.676861 -10.262569 -13.073578 12.331451 -29.100714 -28.993771 20.140640 19.332292 -59.783048 -0.000002 0.000001 0.000002 0.818021 -0.137407 -28.822227 -2.122231 -3.470773 -16.207622 16.435512 -19.526034 24.433748 -0.000001 -0.000003 -0.000003 28.801340 45.575674 39.923132 -28.156063 16.120274 -8.006707 16.096808 -27.009683 12.337465 0.000001 -0.000003 0.000000 6.703716 -3.730891 -12.186908 7.385709 4.243557 -4.403008 2.209914 13.927427 20.964357 0.000002 0.000001 0.000003 
72.117950 96.548286 28.996098 8.715879 29.351369 -6.334618 -13.983861 0.915170 -6.531903 1.199703 2.409148 -2.636179 7.291411 -22.416373 -5.312671 16.110854 27.931362 -20.850735 -0.000000 0.000001 0.000001 4.867819 -6.102696 -9.572276 8.851757 -21.241333 -19.772303 19.151586 19.092098 -61.422655 -0.000006 0.000000 -0.000002 -1.102226 -2.389877 -25.036345 -1.439246 -9.398760 -9.171954 17.153161 -14.842681 27.810010 -0.000001 0.000002 0.000002 30.923483 46.606383 39.737945 -31.525742 20.115674 -4.827783 21.792798 -35.181854 17.754706 0.000001 -0.000003 0.000000 6.619625 -3.969294 -11.359101 5.612740 3.578347 -5.289095 1.827084 14.423445 20.611414 -0.000000 -0.000002 -0.000000 
69.982407 97.291153 29.274746 7.280513 32.071833 -4.281805 -13.439201 1.017369 -6.597748 0.650074 1.544857 -1.713275 7.256083 -21.727096 -5.876207 18.947998 28.243158 -21.559659 -0.000001 0.000003 -0.000000 1.448298 -2.551989 -4.839774 6.624005 -17.806873 -9.947166 16.535015 19.642746 -60.144221 -0.000004 0.000000 0.000000 -1.989866 -4.819711 -20.455450 1.580292 -14.955655 0.312147 16.876919 -7.896831 29.974394 0.000001 0.000001 0.000000 28.248684 45.092185 39.297913 -32.894246 21.016055 -4.668173 25.855259 -36.299669 21.158350 -0.000006 -0.000002 -0.000000 8.585835 -4.209408 -10.857799 3.276602 3.957863 -4.302509 3.252791 11.696421 18.912037 0.000002 -0.000002 0.000000 
67.600861 97.979698 29.533318 7.255484 35.081296 -1.533876 -13.894051 1.462935 -8.916964 1.328319 0.999015 -0.950840 6.792746 -21.313088 -4.574275 19.677840 28.737266 -22.452078 0.000003 0.000000 -0.000002 -1.230727 -0.139218 -0.914819 4.961907 -15.976825 -1.468055 12.087249 20.345465 -56.258687 -0.000004 -0.000001 0.000000 -2.548672 -7.100149 -14.113081 5.573020 -19.043715 10.393267 14.982049 -6.696966 28.836236 0.000001 -0.000002 0.000001 23.190770 44.823205 40.651274 -31.298068 18.318617 -8.509489 28.592439 -26.920726 21.730879 0.000001 -0.000001 0.000002 10.248954 -4.689743 -10.785360 -1.882003 3.939898 -4.006859 6.322055 5.966675 15.981034 -0.000002 -0.000006 0.000001 
65.261322 98.647713 29.764690 6.405734 37.834214 0.295901 -12.317051 1.448137 -9.067080 1.888257 0.460498 -0.163024 5.595656 -20.210364 -4.136899 18.633183 27.935376 -21.709929 -0.000001 -0.000001 0.000001 -2.960080 1.037643 1.330127 3.913652 -14.781388 5.009646 8.762357 21.015881 -53.211292 0.000000 -0.000003 -0.000001 -2.817991 -8.896230 -7.472948 9.105856 -21.181240 18.217774 14.206877 -11.328524 27.276504 -0.000001 0.000001 -0.000001 18.834002 44.621356 41.987164 -29.773782 16.274010 -10.459700 28.163826 -19.169483 19.997378 -0.000003 -0.000002 -0.000000 11.719629 -4.766620 -10.191194 -6.260562 3.974817 -4.200226 8.322416 0.793808 13.136127 -0.000001 -0.000008 -0.000000 
